<svg xmlns="http://www.w3.org/2000/svg" version="1.1" xmlns:xlink="http://www.w3.org/1999/xlink" xmlns:svgjs="http://svgjs.com/svgjs" width="1440" height="560" preserveAspectRatio="none" viewBox="0 0 1440 560"><g mask="url(&quot;#SvgjsMask1000&quot;)" fill="none"><rect width="1440" height="560" x="0" y="0" fill="#0e2a47"></rect><path d="M7.24 -50.56L72.19 -13.06L72.19 61.94L7.24 99.44L-57.71 61.94L-57.71 -13.06zM72.19 61.94L137.15 99.44L137.15 174.44L72.19 211.94L7.24 174.44L7.24 99.44zM72.19 286.94L137.15 324.44L137.15 399.44L72.19 436.94L7.24 399.44L7.24 324.44zM7.24 399.44L72.19 436.94L72.19 511.94L7.24 549.44L-57.71 511.94L-57.71 436.94zM137.15 -50.56L202.1 -13.06L202.1 61.94L137.15 99.44L72.19 61.94L72.19 -13.06zM267.06 -50.56L332.01 -13.06L332.01 61.94L267.06 99.44L202.1 61.94L202.1 -13.06zM267.06 174.44L332.01 211.94L332.01 286.94L267.06 324.44L202.1 286.94L202.1 211.94zM267.06 399.44L332.01 436.94L332.01 511.94L267.06 549.44L202.1 511.94L202.1 436.94zM332.01 511.94L396.96 549.44L396.96 624.44L332.01 661.94L267.06 624.44L267.06 549.44zM461.92 61.94L526.87 99.44L526.87 174.44L461.92 211.94L396.96 174.44L396.96 99.44zM526.87 -50.56L591.82 -13.06L591.82 61.94L526.87 99.44L461.92 61.94L461.92 -13.06zM591.82 286.94L656.78 324.44L656.78 399.44L591.82 436.94L526.87 399.44L526.87 324.44zM591.82 511.94L656.78 549.44L656.78 624.44L591.82 661.94L526.87 624.44L526.87 549.44zM656.78 -50.56L721.73 -13.06L721.73 61.94L656.78 99.44L591.82 61.94L591.82 -13.06zM721.73 61.94L786.69 99.44L786.69 174.44L721.73 211.94L656.78 174.44L656.78 99.44zM656.78 174.44L721.73 211.94L721.73 286.94L656.78 324.44L591.82 286.94L591.82 211.94zM721.73 286.94L786.69 324.44L786.69 399.44L721.73 436.94L656.78 399.44L656.78 324.44zM851.64 61.94L916.59 99.44L916.59 174.44L851.64 211.94L786.68 174.44L786.68 99.44zM786.68 174.44L851.64 211.94L851.64 286.94L786.68 324.44L721.73 286.94L721.73 211.94zM851.64 286.94L916.59 324.44L916.59 399.44L851.64 436.94L786.68 399.44L786.68 324.44zM786.68 399.44L851.64 436.94L851.64 511.94L786.68 549.44L721.73 511.94L721.73 436.94zM851.64 511.94L916.59 549.44L916.59 624.44L851.64 661.94L786.68 624.44L786.68 549.44zM916.59 174.44L981.55 211.94L981.55 286.94L916.59 324.44L851.64 286.94L851.64 211.94zM1046.5 -50.56L1111.45 -13.06L1111.45 61.94L1046.5 99.44L981.55 61.94L981.55 -13.06zM1046.5 399.44L1111.45 436.94L1111.45 511.94L1046.5 549.44L981.55 511.94L981.55 436.94zM1176.41 174.44L1241.36 211.94L1241.36 286.94L1176.41 324.44L1111.45 286.94L1111.45 211.94zM1241.36 286.94L1306.31 324.44L1306.31 399.44L1241.36 436.94L1176.41 399.44L1176.41 324.44zM1176.41 399.44L1241.36 436.94L1241.36 511.94L1176.41 549.44L1111.45 511.94L1111.45 436.94zM1371.27 511.94L1436.22 549.44L1436.22 624.44L1371.27 661.94L1306.32 624.44L1306.32 549.44zM1436.22 -50.56L1501.18 -13.06L1501.18 61.94L1436.22 99.44L1371.27 61.94L1371.27 -13.06z" stroke="#03305d" stroke-width="2"></path><path d="M-0.26 -50.56 a7.5 7.5 0 1 0 15 0 a7.5 7.5 0 1 0 -15 0zM64.69 -13.06 a7.5 7.5 0 1 0 15 0 a7.5 7.5 0 1 0 -15 0zM64.69 61.94 a7.5 7.5 0 1 0 15 0 a7.5 7.5 0 1 0 -15 0zM-0.26 99.44 a7.5 7.5 0 1 0 15 0 a7.5 7.5 0 1 0 -15 0zM-65.21 61.94 a7.5 7.5 0 1 0 15 0 a7.5 7.5 0 1 0 -15 0zM-65.21 -13.06 a7.5 7.5 0 1 0 15 0 a7.5 7.5 0 1 0 -15 0zM129.65 99.44 a7.5 7.5 0 1 0 15 0 a7.5 7.5 0 1 0 -15 0zM129.65 174.44 a7.5 7.5 0 1 0 15 0 a7.5 7.5 0 1 0 -15 0zM64.69 211.94 a7.5 7.5 0 1 0 15 0 a7.5 7.5 0 1 0 -15 0zM-0.26 174.44 a7.5 7.5 0 1 0 15 0 a7.5 7.5 0 1 0 -15 0zM64.69 286.94 a7.5 7.5 0 1 0 15 0 a7.5 7.5 0 1 0 -15 0zM129.65 324.44 a7.5 7.5 0 1 0 15 0 a7.5 7.5 0 1 0 -15 0zM129.65 399.44 a7.5 7.5 0 1 0 15 0 a7.5 7.5 0 1 0 -15 0zM64.69 436.94 a7.5 7.5 0 1 0 15 0 a7.5 7.5 0 1 0 -15 0zM-0.26 399.44 a7.5 7.5 0 1 0 15 0 a7.5 7.5 0 1 0 -15 0zM-0.26 324.44 a7.5 7.5 0 1 0 15 0 a7.5 7.5 0 1 0 -15 0zM64.69 511.94 a7.5 7.5 0 1 0 15 0 a7.5 7.5 0 1 0 -15 0zM-0.26 549.44 a7.5 7.5 0 1 0 15 0 a7.5 7.5 0 1 0 -15 0zM-65.21 511.94 a7.5 7.5 0 1 0 15 0 a7.5 7.5 0 1 0 -15 0zM-65.21 436.94 a7.5 7.5 0 1 0 15 0 a7.5 7.5 0 1 0 -15 0zM129.65 -50.56 a7.5 7.5 0 1 0 15 0 a7.5 7.5 0 1 0 -15 0zM194.6 -13.06 a7.5 7.5 0 1 0 15 0 a7.5 7.5 0 1 0 -15 0zM194.6 61.94 a7.5 7.5 0 1 0 15 0 a7.5 7.5 0 1 0 -15 0zM259.56 -50.56 a7.5 7.5 0 1 0 15 0 a7.5 7.5 0 1 0 -15 0zM324.51 -13.06 a7.5 7.5 0 1 0 15 0 a7.5 7.5 0 1 0 -15 0zM324.51 61.94 a7.5 7.5 0 1 0 15 0 a7.5 7.5 0 1 0 -15 0zM259.56 99.44 a7.5 7.5 0 1 0 15 0 a7.5 7.5 0 1 0 -15 0zM259.56 174.44 a7.5 7.5 0 1 0 15 0 a7.5 7.5 0 1 0 -15 0zM324.51 211.94 a7.5 7.5 0 1 0 15 0 a7.5 7.5 0 1 0 -15 0zM324.51 286.94 a7.5 7.5 0 1 0 15 0 a7.5 7.5 0 1 0 -15 0zM259.56 324.44 a7.5 7.5 0 1 0 15 0 a7.5 7.5 0 1 0 -15 0zM194.6 286.94 a7.5 7.5 0 1 0 15 0 a7.5 7.5 0 1 0 -15 0zM194.6 211.94 a7.5 7.5 0 1 0 15 0 a7.5 7.5 0 1 0 -15 0zM259.56 399.44 a7.5 7.5 0 1 0 15 0 a7.5 7.5 0 1 0 -15 0zM324.51 436.94 a7.5 7.5 0 1 0 15 0 a7.5 7.5 0 1 0 -15 0zM324.51 511.94 a7.5 7.5 0 1 0 15 0 a7.5 7.5 0 1 0 -15 0zM259.56 549.44 a7.5 7.5 0 1 0 15 0 a7.5 7.5 0 1 0 -15 0zM194.6 511.94 a7.5 7.5 0 1 0 15 0 a7.5 7.5 0 1 0 -15 0zM194.6 436.94 a7.5 7.5 0 1 0 15 0 a7.5 7.5 0 1 0 -15 0zM389.46 549.44 a7.5 7.5 0 1 0 15 0 a7.5 7.5 0 1 0 -15 0zM389.46 624.44 a7.5 7.5 0 1 0 15 0 a7.5 7.5 0 1 0 -15 0zM324.51 661.94 a7.5 7.5 0 1 0 15 0 a7.5 7.5 0 1 0 -15 0zM259.56 624.44 a7.5 7.5 0 1 0 15 0 a7.5 7.5 0 1 0 -15 0zM454.42 61.94 a7.5 7.5 0 1 0 15 0 a7.5 7.5 0 1 0 -15 0zM519.37 99.44 a7.5 7.5 0 1 0 15 0 a7.5 7.5 0 1 0 -15 0zM519.37 174.44 a7.5 7.5 0 1 0 15 0 a7.5 7.5 0 1 0 -15 0zM454.42 211.94 a7.5 7.5 0 1 0 15 0 a7.5 7.5 0 1 0 -15 0zM389.46 174.44 a7.5 7.5 0 1 0 15 0 a7.5 7.5 0 1 0 -15 0zM389.46 99.44 a7.5 7.5 0 1 0 15 0 a7.5 7.5 0 1 0 -15 0zM519.37 -50.56 a7.5 7.5 0 1 0 15 0 a7.5 7.5 0 1 0 -15 0zM584.32 -13.06 a7.5 7.5 0 1 0 15 0 a7.5 7.5 0 1 0 -15 0zM584.32 61.94 a7.5 7.5 0 1 0 15 0 a7.5 7.5 0 1 0 -15 0zM454.42 -13.06 a7.5 7.5 0 1 0 15 0 a7.5 7.5 0 1 0 -15 0zM584.32 286.94 a7.5 7.5 0 1 0 15 0 a7.5 7.5 0 1 0 -15 0zM649.28 324.44 a7.5 7.5 0 1 0 15 0 a7.5 7.5 0 1 0 -15 0zM649.28 399.44 a7.5 7.5 0 1 0 15 0 a7.5 7.5 0 1 0 -15 0zM584.32 436.94 a7.5 7.5 0 1 0 15 0 a7.5 7.5 0 1 0 -15 0zM519.37 399.44 a7.5 7.5 0 1 0 15 0 a7.5 7.5 0 1 0 -15 0zM519.37 324.44 a7.5 7.5 0 1 0 15 0 a7.5 7.5 0 1 0 -15 0zM584.32 511.94 a7.5 7.5 0 1 0 15 0 a7.5 7.5 0 1 0 -15 0zM649.28 549.44 a7.5 7.5 0 1 0 15 0 a7.5 7.5 0 1 0 -15 0zM649.28 624.44 a7.5 7.5 0 1 0 15 0 a7.5 7.5 0 1 0 -15 0zM584.32 661.94 a7.5 7.5 0 1 0 15 0 a7.5 7.5 0 1 0 -15 0zM519.37 624.44 a7.5 7.5 0 1 0 15 0 a7.5 7.5 0 1 0 -15 0zM519.37 549.44 a7.5 7.5 0 1 0 15 0 a7.5 7.5 0 1 0 -15 0zM649.28 -50.56 a7.5 7.5 0 1 0 15 0 a7.5 7.5 0 1 0 -15 0zM714.23 -13.06 a7.5 7.5 0 1 0 15 0 a7.5 7.5 0 1 0 -15 0zM714.23 61.94 a7.5 7.5 0 1 0 15 0 a7.5 7.5 0 1 0 -15 0zM649.28 99.44 a7.5 7.5 0 1 0 15 0 a7.5 7.5 0 1 0 -15 0zM779.19 99.44 a7.5 7.5 0 1 0 15 0 a7.5 7.5 0 1 0 -15 0zM779.19 174.44 a7.5 7.5 0 1 0 15 0 a7.5 7.5 0 1 0 -15 0zM714.23 211.94 a7.5 7.5 0 1 0 15 0 a7.5 7.5 0 1 0 -15 0zM649.28 174.44 a7.5 7.5 0 1 0 15 0 a7.5 7.5 0 1 0 -15 0zM714.23 286.94 a7.5 7.5 0 1 0 15 0 a7.5 7.5 0 1 0 -15 0zM584.32 211.94 a7.5 7.5 0 1 0 15 0 a7.5 7.5 0 1 0 -15 0zM779.19 324.44 a7.5 7.5 0 1 0 15 0 a7.5 7.5 0 1 0 -15 0zM779.19 399.44 a7.5 7.5 0 1 0 15 0 a7.5 7.5 0 1 0 -15 0zM714.23 436.94 a7.5 7.5 0 1 0 15 0 a7.5 7.5 0 1 0 -15 0zM844.14 61.94 a7.5 7.5 0 1 0 15 0 a7.5 7.5 0 1 0 -15 0zM909.09 99.44 a7.5 7.5 0 1 0 15 0 a7.5 7.5 0 1 0 -15 0zM909.09 174.44 a7.5 7.5 0 1 0 15 0 a7.5 7.5 0 1 0 -15 0zM844.14 211.94 a7.5 7.5 0 1 0 15 0 a7.5 7.5 0 1 0 -15 0zM779.18 174.44 a7.5 7.5 0 1 0 15 0 a7.5 7.5 0 1 0 -15 0zM779.18 99.44 a7.5 7.5 0 1 0 15 0 a7.5 7.5 0 1 0 -15 0zM844.14 286.94 a7.5 7.5 0 1 0 15 0 a7.5 7.5 0 1 0 -15 0zM779.18 324.44 a7.5 7.5 0 1 0 15 0 a7.5 7.5 0 1 0 -15 0zM909.09 324.44 a7.5 7.5 0 1 0 15 0 a7.5 7.5 0 1 0 -15 0zM909.09 399.44 a7.5 7.5 0 1 0 15 0 a7.5 7.5 0 1 0 -15 0zM844.14 436.94 a7.5 7.5 0 1 0 15 0 a7.5 7.5 0 1 0 -15 0zM779.18 399.44 a7.5 7.5 0 1 0 15 0 a7.5 7.5 0 1 0 -15 0zM844.14 511.94 a7.5 7.5 0 1 0 15 0 a7.5 7.5 0 1 0 -15 0zM779.18 549.44 a7.5 7.5 0 1 0 15 0 a7.5 7.5 0 1 0 -15 0zM714.23 511.94 a7.5 7.5 0 1 0 15 0 a7.5 7.5 0 1 0 -15 0zM909.09 549.44 a7.5 7.5 0 1 0 15 0 a7.5 7.5 0 1 0 -15 0zM909.09 624.44 a7.5 7.5 0 1 0 15 0 a7.5 7.5 0 1 0 -15 0zM844.14 661.94 a7.5 7.5 0 1 0 15 0 a7.5 7.5 0 1 0 -15 0zM779.18 624.44 a7.5 7.5 0 1 0 15 0 a7.5 7.5 0 1 0 -15 0zM974.05 211.94 a7.5 7.5 0 1 0 15 0 a7.5 7.5 0 1 0 -15 0zM974.05 286.94 a7.5 7.5 0 1 0 15 0 a7.5 7.5 0 1 0 -15 0zM1039 -50.56 a7.5 7.5 0 1 0 15 0 a7.5 7.5 0 1 0 -15 0zM1103.95 -13.06 a7.5 7.5 0 1 0 15 0 a7.5 7.5 0 1 0 -15 0zM1103.95 61.94 a7.5 7.5 0 1 0 15 0 a7.5 7.5 0 1 0 -15 0zM1039 99.44 a7.5 7.5 0 1 0 15 0 a7.5 7.5 0 1 0 -15 0zM974.05 61.94 a7.5 7.5 0 1 0 15 0 a7.5 7.5 0 1 0 -15 0zM974.05 -13.06 a7.5 7.5 0 1 0 15 0 a7.5 7.5 0 1 0 -15 0zM1039 399.44 a7.5 7.5 0 1 0 15 0 a7.5 7.5 0 1 0 -15 0zM1103.95 436.94 a7.5 7.5 0 1 0 15 0 a7.5 7.5 0 1 0 -15 0zM1103.95 511.94 a7.5 7.5 0 1 0 15 0 a7.5 7.5 0 1 0 -15 0zM1039 549.44 a7.5 7.5 0 1 0 15 0 a7.5 7.5 0 1 0 -15 0zM974.05 511.94 a7.5 7.5 0 1 0 15 0 a7.5 7.5 0 1 0 -15 0zM974.05 436.94 a7.5 7.5 0 1 0 15 0 a7.5 7.5 0 1 0 -15 0zM1168.91 174.44 a7.5 7.5 0 1 0 15 0 a7.5 7.5 0 1 0 -15 0zM1233.86 211.94 a7.5 7.5 0 1 0 15 0 a7.5 7.5 0 1 0 -15 0zM1233.86 286.94 a7.5 7.5 0 1 0 15 0 a7.5 7.5 0 1 0 -15 0zM1168.91 324.44 a7.5 7.5 0 1 0 15 0 a7.5 7.5 0 1 0 -15 0zM1103.95 286.94 a7.5 7.5 0 1 0 15 0 a7.5 7.5 0 1 0 -15 0zM1103.95 211.94 a7.5 7.5 0 1 0 15 0 a7.5 7.5 0 1 0 -15 0zM1298.81 324.44 a7.5 7.5 0 1 0 15 0 a7.5 7.5 0 1 0 -15 0zM1298.81 399.44 a7.5 7.5 0 1 0 15 0 a7.5 7.5 0 1 0 -15 0zM1233.86 436.94 a7.5 7.5 0 1 0 15 0 a7.5 7.5 0 1 0 -15 0zM1168.91 399.44 a7.5 7.5 0 1 0 15 0 a7.5 7.5 0 1 0 -15 0zM1233.86 511.94 a7.5 7.5 0 1 0 15 0 a7.5 7.5 0 1 0 -15 0zM1168.91 549.44 a7.5 7.5 0 1 0 15 0 a7.5 7.5 0 1 0 -15 0zM1363.77 511.94 a7.5 7.5 0 1 0 15 0 a7.5 7.5 0 1 0 -15 0zM1428.72 549.44 a7.5 7.5 0 1 0 15 0 a7.5 7.5 0 1 0 -15 0zM1428.72 624.44 a7.5 7.5 0 1 0 15 0 a7.5 7.5 0 1 0 -15 0zM1363.77 661.94 a7.5 7.5 0 1 0 15 0 a7.5 7.5 0 1 0 -15 0zM1298.82 624.44 a7.5 7.5 0 1 0 15 0 a7.5 7.5 0 1 0 -15 0zM1298.82 549.44 a7.5 7.5 0 1 0 15 0 a7.5 7.5 0 1 0 -15 0zM1428.72 -50.56 a7.5 7.5 0 1 0 15 0 a7.5 7.5 0 1 0 -15 0zM1493.68 -13.06 a7.5 7.5 0 1 0 15 0 a7.5 7.5 0 1 0 -15 0zM1493.68 61.94 a7.5 7.5 0 1 0 15 0 a7.5 7.5 0 1 0 -15 0zM1428.72 99.44 a7.5 7.5 0 1 0 15 0 a7.5 7.5 0 1 0 -15 0zM1363.77 61.94 a7.5 7.5 0 1 0 15 0 a7.5 7.5 0 1 0 -15 0zM1363.77 -13.06 a7.5 7.5 0 1 0 15 0 a7.5 7.5 0 1 0 -15 0z" fill="#03305d"></path><path d="M59.11 59.49L102.42 84.49L102.42 134.49L59.11 159.49L15.81 134.49L15.81 84.49zM59.11 509.49L102.42 534.49L102.42 584.49L59.11 609.49L15.81 584.49L15.81 534.49zM145.72 209.49L189.02 234.49L189.02 284.49L145.72 309.49L102.42 284.49L102.42 234.49zM102.42 284.49L145.72 309.49L145.72 359.49L102.42 384.49L59.11 359.49L59.11 309.49zM232.32 59.49L275.63 84.49L275.63 134.49L232.32 159.49L189.02 134.49L189.02 84.49zM189.02 134.49L232.32 159.49L232.32 209.49L189.02 234.49L145.72 209.49L145.72 159.49zM275.63 -15.51L318.93 9.49L318.93 59.49L275.63 84.49L232.32 59.49L232.32 9.49zM318.93 59.49L362.23 84.49L362.23 134.49L318.93 159.49L275.63 134.49L275.63 84.49zM318.93 359.49L362.23 384.49L362.23 434.49L318.93 459.49L275.63 434.49L275.63 384.49zM318.93 509.49L362.23 534.49L362.23 584.49L318.93 609.49L275.63 584.49L275.63 534.49zM362.23 -15.51L405.53 9.49L405.53 59.49L362.23 84.49L318.93 59.49L318.93 9.49zM362.23 284.49L405.53 309.49L405.53 359.49L362.23 384.49L318.93 359.49L318.93 309.49zM405.53 509.49L448.84 534.49L448.84 584.49L405.53 609.49L362.23 584.49L362.23 534.49zM448.84 -15.51L492.14 9.49L492.14 59.49L448.84 84.49L405.53 59.49L405.53 9.49zM492.14 209.49L535.44 234.49L535.44 284.49L492.14 309.49L448.84 284.49L448.84 234.49zM448.84 284.49L492.14 309.49L492.14 359.49L448.84 384.49L405.53 359.49L405.53 309.49zM578.74 59.49L622.04 84.49L622.04 134.49L578.74 159.49L535.44 134.49L535.44 84.49zM535.44 134.49L578.74 159.49L578.74 209.49L535.44 234.49L492.14 209.49L492.14 159.49zM665.35 59.49L708.65 84.49L708.65 134.49L665.35 159.49L622.04 134.49L622.04 84.49zM622.04 134.49L665.35 159.49L665.35 209.49L622.04 234.49L578.74 209.49L578.74 159.49zM665.35 359.49L708.65 384.49L708.65 434.49L665.35 459.49L622.04 434.49L622.04 384.49zM622.04 434.49L665.35 459.49L665.35 509.49L622.04 534.49L578.74 509.49L578.74 459.49zM665.35 509.49L708.65 534.49L708.65 584.49L665.35 609.49L622.04 584.49L622.04 534.49zM708.65 134.49L751.95 159.49L751.95 209.49L708.65 234.49L665.35 209.49L665.35 159.49zM708.65 284.49L751.95 309.49L751.95 359.49L708.65 384.49L665.35 359.49L665.35 309.49zM795.25 -15.51L838.56 9.49L838.56 59.49L795.25 84.49L751.95 59.49L751.95 9.49zM838.56 209.49L881.86 234.49L881.86 284.49L838.56 309.49L795.25 284.49L795.25 234.49zM838.56 359.49L881.86 384.49L881.86 434.49L838.56 459.49L795.25 434.49L795.25 384.49zM795.25 434.49L838.56 459.49L838.56 509.49L795.25 534.49L751.95 509.49L751.95 459.49zM881.86 -15.51L925.16 9.49L925.16 59.49L881.86 84.49L838.56 59.49L838.56 9.49zM925.16 209.49L968.47 234.49L968.47 284.49L925.16 309.49L881.86 284.49L881.86 234.49zM881.86 284.49L925.16 309.49L925.16 359.49L881.86 384.49L838.56 359.49L838.56 309.49zM881.86 434.49L925.16 459.49L925.16 509.49L881.86 534.49L838.56 509.49L838.56 459.49zM925.16 509.49L968.47 534.49L968.47 584.49L925.16 609.49L881.86 584.49L881.86 534.49zM968.47 -15.51L1011.77 9.49L1011.77 59.49L968.47 84.49L925.16 59.49L925.16 9.49zM1011.77 209.49L1055.07 234.49L1055.07 284.49L1011.77 309.49L968.47 284.49L968.47 234.49zM968.47 434.49L1011.77 459.49L1011.77 509.49L968.47 534.49L925.16 509.49L925.16 459.49zM1055.07 134.49L1098.37 159.49L1098.37 209.49L1055.07 234.49L1011.77 209.49L1011.77 159.49zM1098.37 209.49L1141.67 234.49L1141.67 284.49L1098.37 309.49L1055.07 284.49L1055.07 234.49zM1184.98 59.49L1228.28 84.49L1228.28 134.49L1184.98 159.49L1141.67 134.49L1141.67 84.49zM1184.98 209.49L1228.28 234.49L1228.28 284.49L1184.98 309.49L1141.67 284.49L1141.67 234.49zM1141.67 434.49L1184.98 459.49L1184.98 509.49L1141.67 534.49L1098.37 509.49L1098.37 459.49zM1228.28 -15.51L1271.58 9.49L1271.58 59.49L1228.28 84.49L1184.98 59.49L1184.98 9.49zM1271.58 59.49L1314.88 84.49L1314.88 134.49L1271.58 159.49L1228.28 134.49L1228.28 84.49zM1228.28 134.49L1271.58 159.49L1271.58 209.49L1228.28 234.49L1184.98 209.49L1184.98 159.49zM1271.58 209.49L1314.88 234.49L1314.88 284.49L1271.58 309.49L1228.28 284.49L1228.28 234.49zM1314.88 -15.51L1358.19 9.49L1358.19 59.49L1314.88 84.49L1271.58 59.49L1271.58 9.49zM1358.19 59.49L1401.49 84.49L1401.49 134.49L1358.19 159.49L1314.88 134.49L1314.88 84.49zM1358.19 359.49L1401.49 384.49L1401.49 434.49L1358.19 459.49L1314.88 434.49L1314.88 384.49zM1401.49 284.49L1444.79 309.49L1444.79 359.49L1401.49 384.49L1358.19 359.49L1358.19 309.49zM1444.79 359.49L1488.1 384.49L1488.1 434.49L1444.79 459.49L1401.49 434.49L1401.49 384.49z" stroke="rgba(6, 80, 156, 0.93)" stroke-width="2"></path></g><defs><mask id="SvgjsMask1000"><rect width="1440" height="560" fill="#ffffff"></rect></mask></defs></svg>