<svg xmlns="http://www.w3.org/2000/svg" version="1.1" xmlns:xlink="http://www.w3.org/1999/xlink" xmlns:svgjs="http://svgjs.com/svgjs" width="1440" height="560" preserveAspectRatio="none" viewBox="0 0 1440 560"><g mask="url(&quot;#SvgjsMask1888&quot;)" fill="none"><rect width="1440" height="560" x="0" y="0" fill="url(#SvgjsLinearGradient1889)"></rect><path d="M1440 0L1338.06 0L1440 206.8z" fill="rgba(255, 255, 255, .1)"></path><path d="M1338.06 0L1440 206.8L1440 389.12L1253.79 0z" fill="rgba(255, 255, 255, .075)"></path><path d="M1253.79 0L1440 389.12L1440 456.2L807.71 0z" fill="rgba(255, 255, 255, .05)"></path><path d="M807.71 0L1440 456.2L1440 464.45L507.82000000000005 0z" fill="rgba(255, 255, 255, .025)"></path><path d="M0 560L568.11 560L0 516.22z" fill="rgba(0, 0, 0, .1)"></path><path d="M0 516.22L568.11 560L722.24 560L0 408.70000000000005z" fill="rgba(0, 0, 0, .075)"></path><path d="M0 408.7L722.24 560L786.51 560L0 300.31z" fill="rgba(0, 0, 0, .05)"></path><path d="M0 300.31L786.51 560L1132.35 560L0 208.99z" fill="rgba(0, 0, 0, .025)"></path></g><defs><mask id="SvgjsMask1888"><rect width="1440" height="560" fill="#ffffff"></rect></mask><linearGradient x1="0%" y1="50%" x2="100%" y2="50%" gradientUnits="userSpaceOnUse" id="SvgjsLinearGradient1889"><stop stop-color="rgba(131, 191, 253, 1)" offset="1"></stop><stop stop-color="rgba(227, 239, 255, 1)" offset="1"></stop></linearGradient></defs></svg>